<?xml version="1.0" encoding="UTF-8"?><svg xmlns="http://www.w3.org/2000/svg" xmlns:xlink="http://www.w3.org/1999/xlink" viewBox="0 0 32 32" version="1.1"><path d="M10.926 4a2.834 2.834 0 0 0-2.48 1.469L3.366 14.55v.008c-.5.902-.5 1.984 0 2.882v.004l5.078 9.086A2.826 2.826 0 0 0 10.925 28h10.15a2.826 2.826 0 0 0 2.48-1.469l5.078-9.082.004-.008a2.978 2.978 0 0 0 0-2.882l-.004-.004-5.078-9.086v.004A2.83 2.83 0 0 0 21.075 4zm0 2h10.148c.262 0 .594.191.735.441v.004l5.078 9.082-.004-.004c.148.266.148.692 0 .957l-5.074 9.079c-.141.25-.473.441-.735.441H10.926c-.262 0-.594-.191-.735-.441l-5.078-9.086.004.004a1.084 1.084 0 0 1 0-.957l5.074-9.079c.141-.25.473-.441.735-.441zm.554 5c-.117.023-.195.188-.132.3L13.87 16l-2.523 4.688c-.07.128.03.312.168.312h1.703c.07-.004.14-.043.168-.11l2.59-4.792c.015-.024.02-.051.023-.078a.182.182 0 0 0 .023.078l2.582 4.793c.032.066.102.109.176.109H20.5c.137 0 .242-.184.172-.313L18.145 16l2.527-4.7c.058-.12-.04-.3-.172-.3h-1.719c-.074 0-.14.04-.176.105l-2.578 4.79c-.015.027-.02.05-.027.078a.2.2 0 0 0-.023-.078l-2.59-4.79a.201.201 0 0 0-.168-.105z" id="surface1"/><metadata><rdf:RDF xmlns:rdf="http://www.w3.org/1999/02/22-rdf-syntax-ns#" xmlns:rdfs="http://www.w3.org/2000/01/rdf-schema#" xmlns:dc="http://purl.org/dc/elements/1.1/"><rdf:Description about="https://iconscout.com/legal#licenses" dc:title="xamarin" dc:description="xamarin" dc:publisher="Iconscout" dc:date="2017-12-30" dc:format="image/svg+xml" dc:language="en"><dc:creator><rdf:Bag><rdf:li>Icons8</rdf:li></rdf:Bag></dc:creator></rdf:Description></rdf:RDF></metadata></svg>